<?xml version="1.0" encoding="UTF-8" standalone="no"?>
<!-- Created with Inkscape (http://www.inkscape.org/) -->

<svg
   version="1.1"
   id="svg2"
   width="336"
   height="51.786667"
   viewBox="0 0 336 51.786667"
   sodipodi:docname="Load-Trail-C_CMYK.eps"
   xmlns:inkscape="http://www.inkscape.org/namespaces/inkscape"
   xmlns:sodipodi="http://sodipodi.sourceforge.net/DTD/sodipodi-0.dtd"
   xmlns="http://www.w3.org/2000/svg"
   xmlns:svg="http://www.w3.org/2000/svg">
  <defs
     id="defs6" />
  <sodipodi:namedview
     id="namedview4"
     pagecolor="#ffffff"
     bordercolor="#000000"
     borderopacity="0.25"
     inkscape:showpageshadow="2"
     inkscape:pageopacity="0.0"
     inkscape:pagecheckerboard="0"
     inkscape:deskcolor="#d1d1d1" />
  <g
     id="g8"
     inkscape:groupmode="layer"
     inkscape:label="ink_ext_XXXXXX"
     transform="matrix(1.3333333,0,0,-1.3333333,0,51.786667)">
    <g
       id="g10"
       transform="scale(0.1)">
      <path
         d="M 702.125,135.82 H 578.133 l 26.469,149.641 c 0.589,2.504 0.14,4.852 -1.262,6.598 -1.504,1.879 -3.977,2.918 -6.953,2.918 H 563.66 c -5.23,0 -8.789,-2.848 -10.027,-8.168 L 521.188,102.711 c -0.536,-3.4141 0.554,-5.5235 1.558,-6.6915 1.5,-1.7422 3.754,-2.6211 6.703,-2.6211 H 696.16 c 5.223,0 8.961,3.1446 9.75,8.1526 l 4.485,24.976 c 0.519,3.411 -0.575,5.516 -1.586,6.684 -1.5,1.73 -3.75,2.609 -6.684,2.609"
         style="fill:#707a84;fill-opacity:1;fill-rule:nonzero;stroke:none"
         id="path12" />
      <path
         d="m 793.473,151.105 14.605,82.758 c 2.86,16.075 6.473,18.7 25.785,18.7 h 65.742 c 10.079,0 15.293,-0.922 17.45,-3.071 0.711,-0.711 1.656,-2.074 1.66,-5.695 -0.004,-1.867 -0.375,-4.246 -0.817,-7.004 L 903.367,154.465 C 900.773,138.434 897.16,135.82 877.59,135.82 h -65.742 c -10.035,0 -15.235,0.922 -17.387,3.075 -0.738,0.742 -1.723,2.16 -1.723,5.96 0,1.747 0.328,3.731 0.735,6.25 z m 178.851,108.993 c -0.004,10.461 -2.91,18.668 -8.636,24.394 -7.063,7.055 -18.301,10.485 -34.352,10.485 H 816.895 c -42.047,0 -52.071,-15.18 -57.586,-47.051 L 740.578,141.672 c -0.785,-4.207 -1.164,-8.5 -1.168,-13.113 0.004,-10.543 2.938,-18.813 8.715,-24.586 7.125,-7.1175 18.426,-10.5746 34.555,-10.5746 h 112.441 c 41.703,0 51.379,14.5116 57.293,47.0466 L 971.16,246.73 c 0.781,4.45 1.164,8.829 1.164,13.368"
         style="fill:#707a84;fill-opacity:1;fill-rule:nonzero;stroke:none"
         id="path14" />
      <path
         d="m 1130.31,172.461 h -66.68 l 47.18,78.297 z m 21.57,114.687 -0.01,0.043 c -1.54,5.383 -4.84,7.786 -10.71,7.786 h -47.55 c -5.7,0 -9.47,-2.157 -12.17,-6.899 L 967.359,104.098 c -1.773,-2.676 -2.093,-5.4496 -0.89,-7.6175 1.09,-1.9571 3.258,-3.0821 5.933,-3.0821 h 36.368 c 5.57,0 9.3,2.2579 11.63,6.9416 l 18.21,30.543 h 101.81 l 7.52,-29.516 c 1.16,-5.3631 4.68,-7.9686 10.76,-7.9686 h 35.52 c 2.36,0 4.38,0.9336 5.7,2.6368 1.42,1.832 1.85,4.3908 1.19,7.0628 l -49.23,184.05"
         style="fill:#707a84;fill-opacity:1;fill-rule:nonzero;stroke:none"
         id="path16" />
      <path
         d="m 1446.95,280.277 c -9.62,9.618 -24.41,14.7 -42.78,14.7 h -132.03 c -5.23,0 -8.79,-2.848 -10.03,-8.168 l -6.03,-34.246 h 123.95 c 11.8,0 19.43,-1.907 23.35,-5.829 2.61,-2.597 3.87,-6.394 3.87,-11.601 0,-2.477 -0.28,-5.375 -0.79,-8.16 l -11.47,-64.368 c -3.39,-19.773 -13,-26.785 -36.7,-26.785 h -71.67 l 11.75,66.016 h -51.23 l -17.47,-99.125 c -0.54,-3.4141 0.55,-5.5235 1.56,-6.6915 1.5,-1.7422 3.75,-2.6211 6.7,-2.6211 h 132.03 c 44.42,0 67.52,18.9106 74.92,61.3046 l 13.7,77.738 c 0.78,4.211 1.17,8.68 1.17,13.668 0,13.989 -4.43,25.805 -12.8,34.168"
         style="fill:#707a84;fill-opacity:1;fill-rule:nonzero;stroke:none"
         id="path18" />
      <path
         d="m 1741.33,260.582 4.2,24.883 c 0.78,3.402 -0.21,5.562 -1.18,6.773 -1.01,1.25 -3,2.739 -6.77,2.739 h -183.77 c -5.25,0 -8.8,-2.848 -10.03,-8.157 l -4.49,-24.965 c -0.5,-3.332 0.62,-5.449 1.65,-6.632 1.05,-1.211 3.05,-2.66 6.63,-2.66 h 65.8 l -26.51,-149.852 c -0.52,-3.3282 0.59,-5.4493 1.61,-6.6368 1.06,-1.2226 3.06,-2.6758 6.65,-2.6758 h 32.72 c 5.32,0 9.26,3.2227 10.04,8.1646 l 26.71,151 h 66.75 c 5.25,0 8.8,2.847 9.99,8.019"
         style="fill:#707a84;fill-opacity:1;fill-rule:nonzero;stroke:none"
         id="path20" />
      <path
         d="m 2139.89,172.461 h -66.68 l 47.17,78.297 z m 21.57,114.687 -0.02,0.043 c -1.53,5.383 -4.84,7.786 -10.71,7.786 h -47.54 c -5.71,0 -9.48,-2.157 -12.17,-6.899 l -114.08,-183.98 c -1.78,-2.676 -2.1,-5.4496 -0.89,-7.6175 1.08,-1.9571 3.25,-3.0821 5.93,-3.0821 h 36.37 c 5.56,0 9.29,2.2579 11.63,6.9416 l 18.2,30.543 H 2150 l 7.52,-29.516 c 1.16,-5.3631 4.67,-7.9686 10.75,-7.9686 h 35.52 c 2.37,0 4.39,0.9336 5.71,2.6368 1.41,1.832 1.85,4.3908 1.18,7.0628 l -49.22,184.05"
         style="fill:#707a84;fill-opacity:1;fill-rule:nonzero;stroke:none"
         id="path22" />
      <path
         d="m 2315.4,292.059 c -1.51,1.879 -3.98,2.918 -6.96,2.918 h -32.72 c -5.24,0 -8.79,-2.848 -10.03,-8.168 l -32.45,-184.098 c -0.53,-3.4141 0.56,-5.5235 1.56,-6.6915 1.5,-1.7422 3.75,-2.6211 6.7,-2.6211 h 32.73 c 5.31,0 9.25,3.2227 10.03,8.1646 l 32.4,183.898 c 0.59,2.504 0.14,4.852 -1.26,6.598"
         style="fill:#707a84;fill-opacity:1;fill-rule:nonzero;stroke:none"
         id="path24" />
      <path
         d="m 2518.28,133.211 c -1.5,1.73 -3.75,2.609 -6.68,2.609 h -124 l 26.47,149.641 c 0.59,2.504 0.15,4.852 -1.26,6.598 -1.5,1.879 -3.97,2.918 -6.95,2.918 h -32.73 c -5.23,0 -8.79,-2.848 -10.03,-8.168 l -32.44,-184.098 c -0.54,-3.4141 0.55,-5.5235 1.56,-6.6915 1.5,-1.7422 3.75,-2.6211 6.7,-2.6211 h 166.71 c 5.22,0 8.96,3.1446 9.75,8.1526 l 4.49,24.976 c 0.52,3.411 -0.58,5.516 -1.59,6.684"
         style="fill:#707a84;fill-opacity:1;fill-rule:nonzero;stroke:none"
         id="path26" />
      <path
         d="m 1967,284.75 c -6.88,6.883 -17.94,10.227 -33.82,10.227 h -146.85 c -5.23,0 -8.79,-2.848 -10.03,-8.168 l -6.03,-34.246 h 134.29 c 6.8,0 13.4,-0.325 15.71,-2.633 0.62,-0.621 1.45,-1.848 1.45,-5.285 0,-2.184 -0.29,-5.172 -0.8,-8.18 l -3.07,-17.36 c -2.45,-14.218 -4.75,-17.269 -23.55,-17.269 h -132.97 l -17.47,-99.125 c -0.54,-3.4141 0.55,-5.5235 1.56,-6.6915 1.5,-1.7422 3.75,-2.6211 6.7,-2.6211 h 32.72 c 5.32,0 9.26,3.2227 10.03,8.1756 l 9.95,57.836 h 49.28 l 43.33,-60.328 c 3.15,-4.1953 6.34,-5.6836 12.17,-5.6836 h 39.16 c 2.69,0 5.16,1.6719 6.14,4.168 0.89,2.3008 0.35,4.8286 -1.17,6.3166 l -44.55,57.488 h 1.55 c 40.83,0 50.73,15.438 56.45,47.879 l 6.98,38.609 c 0.79,4.454 1.17,8.825 1.17,13.368 0,10.23 -2.73,17.921 -8.33,23.523"
         style="fill:#707a84;fill-opacity:1;fill-rule:nonzero;stroke:none"
         id="path28" />
      <path
         d="m 164.211,223.371 263.613,0.324 26.66,151.2 c 1.239,7.031 -4.168,13.476 -11.308,13.476 H 193.27 l -29.059,-165"
         style="fill:#1e54a8;fill-opacity:1;fill-rule:nonzero;stroke:none"
         id="path30" />
      <path
         d="m 342.055,165.004 c -5.336,0 -9.903,-3.824 -10.84,-9.078 L 303.434,0 h 75.308 c 5.574,0 10.344,4 11.313,9.48828 L 417.477,165.004 h -75.422"
         style="fill:#1e54a8;fill-opacity:1;fill-rule:nonzero;stroke:none"
         id="path32" />
      <path
         d="m 258.219,151.738 c 1.199,6.746 -3.989,12.938 -10.84,12.938 H 92.8398 c -4.2148,0 -6.5039,1.621 -7.6835,2.976 -1.1485,1.325 -2.3946,3.719 -1.8399,7.645 L 121.023,388.371 H 75.918 c -5.5742,0 -10.3438,-4 -11.3086,-9.488 L 0.175781,13.4766 C -1.0625,6.44531 4.34766,0 11.4883,0 H 231.199 l 27.02,151.738"
         style="fill:#1e54a8;fill-opacity:1;fill-rule:nonzero;stroke:none"
         id="path34" />
      <path
         d="m 490.523,388.371 h -19.191 c -0.57,0 -0.965,-0.285 -1.078,-0.902 l -0.457,-2.239 c -0.117,-0.574 0.109,-0.859 0.683,-0.859 h 7.188 L 474.25,368.32 c -0.113,-0.617 0.113,-0.902 0.684,-0.902 h 3.004 c 0.617,0 1.007,0.285 1.125,0.902 l 3.417,16.051 h 7.192 c 0.57,0 1.008,0.285 1.125,0.859 l 0.457,2.239 c 0.117,0.617 -0.156,0.902 -0.731,0.902"
         style="fill:#1e54a8;fill-opacity:1;fill-rule:nonzero;stroke:none"
         id="path36" />
      <path
         d="m 522.336,388.371 h -6.141 c -0.621,0 -1.058,-0.285 -1.367,-0.855 l -9.18,-16.004 -2.343,16.004 c -0.078,0.57 -0.492,0.855 -1.067,0.855 h -5.668 c -0.57,0 -0.961,-0.285 -1.125,-0.902 l -4.004,-19.149 c -0.164,-0.617 0.114,-0.902 0.684,-0.902 h 2.715 c 0.621,0 1.012,0.285 1.176,0.902 l 3.367,16.004 2.629,-16.051 c 0.078,-0.57 0.398,-0.855 1.019,-0.855 h 3.621 c 0.618,0 1.102,0.285 1.407,0.855 l 9.515,16.098 -3.367,-16.051 c -0.164,-0.617 0.063,-0.902 0.684,-0.902 h 3 c 0.57,0 0.961,0.285 1.078,0.902 l 4.047,19.149 c 0.121,0.617 -0.11,0.902 -0.68,0.902"
         style="fill:#1e54a8;fill-opacity:1;fill-rule:nonzero;stroke:none"
         id="path38" />
    </g>
  </g>
</svg>
